# xmcd
# 
# Track frame offsets:
#     150
#     18547
#     35562
#     52860
#     71435
#     88317
#     107095
#     127817
#     148480
#     163947
#     181082
#     200910
#     223805
#     240297
#     255195
#     269885
#     293150
#     308230
# 
# Disc length: 4349
# 
# Revision: 2
# Processed by: cddbd v1.5.2PL0 Copyright (c) Steve Scherf et al.
# Submitted via: fre:ac v1.0.17
# 
DISCID=1310fb12
DTITLE=Various Artist - Canto E Encanto Nativo-Vol-7
DYEAR=0
DGENRE=Gaucha
TTITLE0=Oswaldir and Carlos Magrão - Prece
TTITLE1=Adair De Freitas - Previsão
TTITLE2=Os Mateadores - Pedaços De Tempo
TTITLE3=Grupo Alma De Campo - Pouso De Tropa
TTITLE4=José  Claudio Machado - Pelos
TTITLE5=Os Farrapos - Estampa Do Pampa
TTITLE6=Dalcio Tavares - Ho! De Casa
TTITLE7=Grupo Legendas - No Lombo Do Luar
TTITLE8=Cesar Passarinho - Lavando A Alma
TTITLE9=Os Mirins - Respeito Ao Gaucho
TTITLE10=Luiz Carlos Borges - Vidro Dos Olhos
TTITLE11=Pedro Ortaça - Reflexões De Quem Anda
TTITLE12=Grupo Rodeio - Tropeiro
TTITLE13=Ivan Vargas - Milonga Do Amor Presente
TTITLE14=Miguel Marques - Manhâs
TTITLE15=Daniel Torres - Milonga Da Integração
TTITLE16=Leonardo - Recanto Do Nosso Amor
TTITLE17=Parceiros - Pedaço De Chão
EXTD=
EXTT0=Oswaldir and Carlos Magr o\n(Jos  Mendes - Jaime Caetano Braun)
EXTT1=Adair De Freitas\n(Adair De Freitas)
EXTT2=Os Mateadores\n(Eduardo M. Marques - Wilson Paim)
EXTT3=Grupo Alma De Campo\n(Jorge Honofre Pires Da silva - Carlos Hoffmann - Daniel Barros)
EXTT4=Jos  Cl udio Machado\n(Jos  Cl udio Machado)
EXTT5=Os Farrapos\n(Leonir - Calico)
EXTT6=D lcio Tavares\n(Honeide Bertussi)
EXTT7=Grupo Legendas\n(Jaime Brum Carlos - Luiz Cardoso)
EXTT8=Cesar Passarinho\n(Mauro Moraes)
EXTT9=Os Mirins\n(Francisco Castilhos - Albino Manique)
EXTT10=Luiz Carlos Borges\n(Appar cio Silva Rillo - Luiz Carlos Borges)
EXTT11=Pedro Orta a\n(Eron Vaz Mattos - Pedro Orta a)
EXTT12=Grupo Rodeio\n(R gis Marques)
EXTT13=Ivan Vargas\n(Salvador F. Lamberty - Ivan Vargas)
EXTT14=Miguel Marques\n(Jos  A. Sarturi - Miguel Marques)
EXTT15=Daniel Torres\n(Aroldo Torres - Roberto Mara - Daniel Torres)
EXTT16=Leonardo\n(Leonardo)
EXTT17=Parceiros\n(Reonil Tesser)
PLAYORDER=
